# xmcd
#
# Track frame offsets: 
#        150
#        18985
#        33802
#        51836
#        75918
#        87665
#        107804
#        124228
#        135769
#        157412
#
# Disc length: 2310 seconds
#
# Revision: 0
# Processed by: cddbd v1.5.2PL0 Copyright (c) Steve Scherf et al.
# Submitted via: ExactAudioCopy v1.0b3
#
DISCID=7709040a
DTITLE=Joe Cocker - Sheffield Steel
DYEAR=1982
DGENRE=Blues Rock
TTITLE0=Look What You've Done
TTITLE1=Shocked
TTITLE2=Sweet Li'l Woman
TTITLE3=Seven Days
TTITLE4=Marie
TTITLE5=Ruby Lee
TTITLE6=Many Rivers To Cross
TTITLE7=So Good, So Right
TTITLE8=Talking Back To The Night
TTITLE9=Just Like Always
EXTD=
EXTT0=
EXTT1=
EXTT2=
EXTT3=
EXTT4=
EXTT5=
EXTT6=
EXTT7=
EXTT8=
EXTT9=
PLAYORDER=
